<svg xmlns="http://www.w3.org/2000/svg" xmlns:xlink="http://www.w3.org/1999/xlink" version="1.1" style="enable-background:new 0 0 512 512;" xml:space="preserve" width="512" height="512"><rect id="backgroundrect" width="100%" height="100%" x="0" y="0" fill="none" stroke="none"/>



















<g class="currentLayer" style=""><title>Layer 1</title><g id="svg_1" class="selected" fill="#ffffff" fill-opacity="1">
	<g id="svg_2" fill="#ffffff" fill-opacity="1">
		<path d="M437.019,74.981C388.668,26.629,324.38,0,256,0S123.332,26.629,74.981,74.981C26.628,123.332,0,187.62,0,256    s26.628,132.668,74.981,181.019C123.332,485.371,187.62,512,256,512s132.668-26.629,181.019-74.981    C485.372,388.668,512,324.38,512,256S485.372,123.332,437.019,74.981z M256,481.524c-124.354,0-225.524-101.17-225.524-225.524    S131.646,30.476,256,30.476S481.524,131.646,481.524,256S380.354,481.524,256,481.524z" id="svg_3" fill="#ffffff" fill-opacity="1"/>
	</g>
</g><g id="svg_4" class="selected" fill="#ffffff" fill-opacity="1">
	<g id="svg_5" fill="#ffffff" fill-opacity="1">
		<path d="M200.622,188.396c-24.953-24.955-65.556-24.953-90.509,0c-5.951,5.95-5.951,15.599,0,21.55    c5.952,5.95,15.601,5.95,21.551,0c13.072-13.071,34.34-13.07,47.41,0c2.976,2.976,6.875,4.464,10.774,4.464    s7.8-1.488,10.774-4.464C206.573,203.995,206.573,194.347,200.622,188.396z" id="svg_6" fill="#ffffff" fill-opacity="1"/>
	</g>
</g><g id="svg_7" class="selected" fill="#ffffff" fill-opacity="1">
	<g id="svg_8" fill="#ffffff" fill-opacity="1">
		<path d="M401.884,188.396c-24.953-24.953-65.556-24.955-90.509,0c-5.951,5.95-5.951,15.599,0,21.55    c5.952,5.95,15.601,5.95,21.551,0c13.07-13.071,34.338-13.072,47.41,0c2.976,2.976,6.875,4.464,10.774,4.464    s7.8-1.488,10.774-4.464C407.835,203.995,407.835,194.347,401.884,188.396z" id="svg_9" fill="#ffffff" fill-opacity="1"/>
	</g>
</g><g id="svg_10" class="selected" fill="#ffffff" fill-opacity="1">
	<g id="svg_11" fill="#ffffff" fill-opacity="1">
		<path d="M391.111,267.175H120.889c-8.416,0-15.238,6.823-15.238,15.238c0,82.902,67.447,150.349,150.349,150.349    s150.349-67.447,150.349-150.349C406.349,273.997,399.527,267.175,391.111,267.175z M256,402.286    c-60.938,0-111.402-45.703-118.909-104.635H374.91C367.402,356.583,316.938,402.286,256,402.286z" id="svg_12" fill="#ffffff" fill-opacity="1"/>
	</g>
</g><g id="svg_13" class="selected" fill="#ffffff" fill-opacity="1">
</g><g id="svg_14" class="selected" fill="#ffffff" fill-opacity="1">
</g><g id="svg_15" class="selected" fill="#ffffff" fill-opacity="1">
</g><g id="svg_16" class="selected" fill="#ffffff" fill-opacity="1">
</g><g id="svg_17" class="selected" fill="#ffffff" fill-opacity="1">
</g><g id="svg_18" class="selected" fill="#ffffff" fill-opacity="1">
</g><g id="svg_19" class="selected" fill="#ffffff" fill-opacity="1">
</g><g id="svg_20" class="selected" fill="#ffffff" fill-opacity="1">
</g><g id="svg_21" class="selected" fill="#ffffff" fill-opacity="1">
</g><g id="svg_22" class="selected" fill="#ffffff" fill-opacity="1">
</g><g id="svg_23" class="selected" fill="#ffffff" fill-opacity="1">
</g><g id="svg_24" class="selected" fill="#ffffff" fill-opacity="1">
</g><g id="svg_25" class="selected" fill="#ffffff" fill-opacity="1">
</g><g id="svg_26" class="selected" fill="#ffffff" fill-opacity="1">
</g><g id="svg_27" class="selected" fill="#ffffff" fill-opacity="1">
</g></g></svg>